<?xml version="1.0" encoding="UTF-8"?>
<svg id="Capa_2" data-name="Capa 2" xmlns="http://www.w3.org/2000/svg" viewBox="0 0 70.49 70.49">
  <defs>
    <style>
      .cls-1 {
        fill: #192f50;
      }
    </style>
  </defs>
  <g id="Capa_1-2" data-name="Capa 1">
    <g>
      <path class="cls-1" d="m69.21,8.04l-8.26,4.13-1.85-3.69,8.26-4.13,1.85,3.69Z"/>
      <path class="cls-1" d="m67.36,41.08l-8.26-4.13,1.85-3.7,8.26,4.13-1.85,3.69Z"/>
      <path class="cls-1" d="m62.09,20.65h8.4v4.13h-8.4v-4.13Z"/>
      <path class="cls-1" d="m3.12,4.35l8.26,4.13-1.85,3.69L1.28,8.04l1.84-3.69Z"/>
      <path class="cls-1" d="m3.12,41.08l-1.85-3.69,8.26-4.13,1.85,3.69-8.26,4.13Z"/>
      <path class="cls-1" d="m0,20.65h8.4v4.13H0v-4.13Z"/>
      <path class="cls-1" d="m29.05,66.36h12.39v4.13h-12.39v-4.13Z"/>
      <path class="cls-1" d="m57.96,22.72C57.96,10.19,47.77,0,35.24,0S12.53,10.19,12.53,22.72c0,8.54,4.82,16.33,12.39,20.21v6.64h-4.13v4.13h4.13v8.54h20.65v-8.54h4.13v-4.13h-4.13v-6.64c7.57-3.88,12.39-11.67,12.39-20.21Zm-16.52,35.38h-12.39v-4.41h12.39v4.41Zm-8.26-31.25c0-1.14.93-2.06,2.06-2.06s2.06.93,2.06,2.06-.92,2.07-2.06,2.07-2.06-.93-2.06-2.07Zm4.13,22.72v-16.88c2.41-.85,4.13-3.15,4.13-5.84,0-3.42-2.78-6.2-6.2-6.2s-6.19,2.78-6.19,6.2c0,2.69,1.72,4.99,4.13,5.84v16.88h-4.13v-9.3l-1.24-.54c-6.77-2.98-11.15-9.65-11.15-17.01,0-10.25,8.33-18.59,18.58-18.59s18.58,8.34,18.58,18.59c0,7.36-4.38,14.03-11.15,17.01l-1.23.54v9.3h-4.13Z"/>
    </g>
  </g>
</svg>