<?xml version="1.0" encoding="UTF-8"?>
<svg id="Capa_2" data-name="Capa 2" xmlns="http://www.w3.org/2000/svg" viewBox="0 0 71.04 71.12">
  <defs>
    <style>
      .cls-1 {
        fill: #002d54;
      }
    </style>
  </defs>
  <g id="Capa_1-2" data-name="Capa 1">
    <g>
      <path class="cls-1" d="m35.52,25.18c-5.74,0-10.41,4.67-10.41,10.41s4.67,10.41,10.41,10.41,10.41-4.67,10.41-10.41-4.67-10.41-10.41-10.41Zm0,16.65c-3.44,0-6.24-2.8-6.24-6.24s2.8-6.24,6.24-6.24,6.25,2.8,6.25,6.24-2.8,6.24-6.25,6.24Z"/>
      <path class="cls-1" d="m35.52,38.53l-2.94-2.94,2.94-2.94,2.94,2.94-2.94,2.94Z"/>
      <path class="cls-1" d="m54.13,49.03c.24-4.18.04-8.35-.58-12.49-1.58-10.41-5.86-20.32-12.72-29.47l-5.3-7.07-5.3,7.07c-6.86,9.14-11.14,19.06-12.72,29.47-.63,4.14-.82,8.31-.58,12.49-2.41,1.74-4.44,4.01-5.89,6.62-1.68,3.01-2.56,6.43-2.56,9.88v5.58l4.32-3.17c2.17-1.43,4.61-2.4,7.17-2.83.79,2.46,1.37,3.86,2.16,6,1.38-.92,4.67-4.99,11.33-5.79v5.77h4.16v-5.77c6.67.8,9.97,4.88,11.33,5.79.8-2.16,1.38-3.55,2.16-6,2.55.43,5,1.39,7.17,2.83l4.32,3.17v-5.58c0-6.54-3.14-12.68-8.45-16.51Zm-41.33,14.1c.51-3.47,2.13-6.64,4.6-9.09.33,2.35.79,4.7,1.39,7.05-2.08.4-4.1,1.08-5.99,2.04Zm34.17,1.19c-2.89-1.81-6.1-2.87-9.37-3.18v-10.85h-4.16v10.85c-3.27.32-6.48,1.38-9.37,3.18-6.21-18.93-2.89-38.28,9.48-54.76l1.97-2.63,1.97,2.63c12.36,16.49,15.69,35.83,9.48,54.76Zm5.28-3.23c.6-2.35,1.06-4.7,1.39-7.05,2.47,2.44,4.09,5.62,4.6,9.09-1.89-.95-3.91-1.64-5.99-2.04Z"/>
      <path class="cls-1" d="m0,16.85h12.62v4.16H0v-4.16Z"/>
      <path class="cls-1" d="m58.42,16.85h12.63v4.16h-12.63v-4.16Z"/>
      <path class="cls-1" d="m4.33,2.09l11.32,5.28-1.76,3.77L2.57,5.86l1.76-3.77Z"/>
      <path class="cls-1" d="m66.71,35.77l-11.32-5.28,1.76-3.77,11.32,5.28-1.76,3.77Z"/>
      <path class="cls-1" d="m2.57,32l11.32-5.28,1.76,3.77-11.32,5.28-1.76-3.77Z"/>
      <path class="cls-1" d="m66.71,2.09l1.76,3.77-11.32,5.28-1.76-3.77,11.32-5.28Z"/>
    </g>
  </g>
</svg>