<?xml version="1.0" encoding="UTF-8"?>
<svg id="Capa_2" data-name="Capa 2" xmlns="http://www.w3.org/2000/svg" viewBox="0 0 72.53 72.53">
  <defs>
    <style>
      .cls-1 {
        fill: #002d54;
      }
    </style>
  </defs>
  <g id="Capa_1-2" data-name="Capa 1">
    <g>
      <path class="cls-1" d="m31.98,19.8c1.24-1.16,2.02-2.81,2.02-4.64,0-2.42-1.36-4.53-3.36-5.61L35.26,0H11.48l4.62,9.55c-1.99,1.08-3.35,3.19-3.35,5.61,0,1.83.78,3.48,2.02,4.65C3.29,28.59,0,42.49,0,56.94v11.34h38.25v4.25h34.28V30.03h-31.67c-2.28-4.03-5.25-7.46-8.87-10.23Zm-12.86-2.52c-1.17,0-2.13-.95-2.13-2.12s.96-2.12,2.13-2.12h8.5c1.17,0,2.13.95,2.13,2.12s-.95,2.12-2.13,2.12h-8.5Zm9.36-13.03l-2.19,4.53h-5.83l-2.19-4.53h10.22ZM4.25,64.03v-7.09c0-17.31,5.06-28.9,15.47-35.4h7.3c4.98,3.11,8.66,7.27,11.22,12.69v29.8H4.25Zm64.02,4.25h-25.78v-8.5h25.78v8.5Zm-25.78-12.75v-8.5h25.78v8.5h-25.78Zm25.78-21.25v8.5h-25.78v-8.5h25.78Z"/>
      <path class="cls-1" d="m23.37,40.65c1.17,0,2.12.95,2.12,2.12h4.25c0-2.77-1.78-5.13-4.25-6.01v-2.49h-4.25v2.49c-2.48.88-4.25,3.24-4.25,6.01,0,3.51,2.86,6.37,6.38,6.37,1.17,0,2.12.95,2.12,2.12s-.95,2.12-2.12,2.12-2.12-.95-2.12-2.12h-4.25c0,2.77,1.78,5.13,4.25,6.01v2.49h4.25v-2.49c2.47-.88,4.25-3.24,4.25-6.01,0-3.51-2.86-6.38-6.38-6.38-1.17,0-2.12-.95-2.12-2.12s.95-2.12,2.12-2.12Z"/>
    </g>
  </g>
</svg>