<?xml version="1.0" encoding="UTF-8"?>
<svg id="Capa_2" data-name="Capa 2" xmlns="http://www.w3.org/2000/svg" viewBox="0 0 70.24 70.24">
  <defs>
    <style>
      .cls-1 {
        fill: #002d54;
      }
    </style>
  </defs>
  <g id="Capa_1-2" data-name="Capa 1">
    <path class="cls-1" d="m70.24,66.12h-4.12v-30.15l4.12,4.11v-23.49h-23.49l7.38,7.38-7.11,7.11-15.93-11.85L4.12,38.42V0H0v70.24h70.24v-4.12Zm-41.29-30.19v30.19h-12.35v-21.41l12.35-8.78Zm4.11.19l12.49,9.29v20.71h-12.49v-29.99Zm16.6,9.78l12.35-12.35v32.56h-12.35v-20.21Zm-18.62-21.57l16.38,12.18,12.53-12.53-3.26-3.26h9.44v9.44l-3.26-3.26-15.07,15.07-16.82-12.51L4.12,48.53v-5.07l26.92-19.14ZM4.12,53.58l8.37-5.95v18.49H4.12v-12.54Z"/>
  </g>
</svg>