<?xml version="1.0" encoding="UTF-8"?>
<svg id="Capa_2" data-name="Capa 2" xmlns="http://www.w3.org/2000/svg" viewBox="0 0 72.52 72.52">
  <defs>
    <style>
      .cls-1 {
        fill: #002d54;
      }
    </style>
  </defs>
  <g id="Capa_1-2" data-name="Capa 1">
    <g>
      <path class="cls-1" d="m26.9,34.78l9.37-4.92,9.36,4.92-1.79-10.43,7.58-7.38-10.47-1.52-4.68-9.49-4.68,9.49-10.47,1.52,7.58,7.38-1.79,10.43Zm7.5-15.45l1.86-3.77,1.86,3.77,4.16.6-3.01,2.93.71,4.14-3.72-1.96-3.72,1.96.71-4.14-3.01-2.93,4.16-.6Z"/>
      <path class="cls-1" d="m10.62,8.64C4.77,8.64,0,13.4,0,19.26s4.77,10.62,10.62,10.62h3.02c2.22,7.79,8.41,13.93,16.25,16.12v9.37h-7.91l-4.25,12.89h-4.84v4.25h46.74v-4.25h-4.84l-4.25-12.89h-7.91v-9.38c7.77-2.21,13.91-8.34,16.11-16.11h3.15c5.86,0,10.62-4.77,10.62-10.62s-4.77-10.62-10.62-10.62h-2.27v-4.39h4.39V0H8.5v4.25h4.25v4.39h-2.13Zm0,17c-3.51,0-6.37-2.86-6.37-6.37s2.86-6.37,6.37-6.37h2.13v10.62c0,.72.04,1.43.1,2.12h-2.23Zm39.7,42.64h-28.12l2.85-8.64h22.42l2.85,8.64Zm-11.94-12.89h-4.25v-8.6c.7.06,1.41.1,2.12.1s1.42-.03,2.12-.1v8.6ZM61.9,12.89c3.51,0,6.38,2.86,6.38,6.37s-2.86,6.37-6.38,6.37h-2.36c.06-.7.1-1.41.1-2.12v-10.62h2.27Zm-6.52-8.64v19.26c0,10.55-8.58,19.12-19.12,19.12s-19.26-8.58-19.26-19.12V4.25h38.38Z"/>
    </g>
  </g>
</svg>